<svg xmlns="http://www.w3.org/2000/svg" width="160" height="187.327" viewBox="0 0 160 187.327">
  <g id="logo_gnavi" transform="translate(-668.001 -414.756)">
    <g id="グループ_13882" data-name="グループ 13882" transform="translate(668.001 414.756)">
      <path id="パス_28882" data-name="パス 28882" d="M713.08,414.756v79.719H697.459V451.009Zm79.327,38.506c0,22.96-14.9,41.214-40.083,41.214H723.055v-79.72h30.623C779.162,414.756,792.407,429.237,792.407,453.262Zm-16.971.105c0-19.62-12-22.993-23.216-22.993H738.677v48.481l12.291,0C768.114,478.857,775.436,468.7,775.436,453.367Z" transform="translate(-648.363 -414.756)" fill="#2e2624"/>
      <g id="グループ_13881" data-name="グループ 13881">
        <path id="パス_28883" data-name="パス 28883" d="M715.735,430.375H704.126v64.1H688.505v-64.1H668l6.729-15.617,47.733,0Z" transform="translate(-668.001 -414.756)" fill="#63b62f"/>
      </g>
    </g>
    <g id="グループ_13883" data-name="グループ 13883" transform="translate(678.842 508.944)">
      <path id="パス_28884" data-name="パス 28884" d="M678.181,475.141h-3.675v-3.158h10.8v3.158h-3.673v13.586h-3.45Z" transform="translate(-674.506 -470.795)" fill="#231815"/>
      <path id="パス_28885" data-name="パス 28885" d="M680.685,482.366v-3.2c0-3.16,1.927-5.227,5.327-5.227,3.323,0,5.323,2.067,5.323,5.227v3.2c0,3.278-2,5.3-5.323,5.3C682.612,487.665,680.685,485.645,680.685,482.366Zm5.327,2.518a1.9,1.9,0,0,0,2.025-2.065v-4.038a2.026,2.026,0,1,0-4.052,0v4.038A1.872,1.872,0,0,0,686.011,484.885Z" transform="translate(-670.387 -469.493)" fill="#231815"/>
      <path id="パス_28886" data-name="パス 28886" d="M688.275,471.27h3.3v10h1.1l2.825-5.415h3.75L695.4,482.5l3.873,6.7h-3.75l-2.85-5.367h-1.1V489.2h-3.3Z" transform="translate(-665.327 -471.27)" fill="#231815"/>
      <path id="パス_28887" data-name="パス 28887" d="M699.689,487.346l-4.348-13.325h3.523l2.5,8.883,2.5-8.883h3.525l-5.9,18.028h-3.35Z" transform="translate(-660.617 -469.436)" fill="#231815"/>
      <path id="パス_28888" data-name="パス 28888" d="M702.961,482.366v-3.2c0-3.16,1.925-5.227,5.325-5.227,3.323,0,5.323,2.067,5.323,5.227v3.2c0,3.278-2,5.3-5.323,5.3C704.886,487.665,702.961,485.645,702.961,482.366Zm5.325,2.518a1.9,1.9,0,0,0,2.025-2.065v-4.038a2.026,2.026,0,1,0-4.051,0v4.038A1.873,1.873,0,0,0,708.286,484.885Z" transform="translate(-655.537 -469.493)" fill="#231815"/>
      <path id="パス_28889" data-name="パス 28889" d="M676.271,486.983h3.45v16.745h-3.45Z" transform="translate(-673.329 -460.795)" fill="#231815"/>
      <path id="パス_28890" data-name="パス 28890" d="M680.171,489.078h3.075v1.52a3.8,3.8,0,0,1,3.348-1.663c2.552,0,4.225,1.5,4.225,4.893v8.6h-3.325v-8.36c0-1.64-.748-2.352-2.025-2.352-1.348,0-2.023.688-2.023,2.4v8.313h-3.275Z" transform="translate(-670.729 -459.494)" fill="#231815"/>
      <path id="パス_28891" data-name="パス 28891" d="M688.854,493.61h-1.423v-2.73h1.423c0-3.873,1.677-4.94,5.8-4.585v2.685c-1.927-.287-2.5.237-2.5,1.9h2.473v2.73h-2.473v10.618h-3.3Z" transform="translate(-665.89 -461.296)" fill="#231815"/>
      <path id="パス_28892" data-name="パス 28892" d="M692.126,497.367v-3.2c0-3.16,1.925-5.227,5.325-5.227,3.323,0,5.325,2.067,5.325,5.227v3.2c0,3.278-2,5.3-5.325,5.3C694.051,502.665,692.126,500.645,692.126,497.367Zm5.325,2.518a1.9,1.9,0,0,0,2.025-2.065v-4.038a2.026,2.026,0,1,0-4.052,0v4.038A1.873,1.873,0,0,0,697.451,499.885Z" transform="translate(-662.76 -459.494)" fill="#231815"/>
      <path id="パス_28893" data-name="パス 28893" d="M699.641,489.091h3.073v1.8c.4-1.473,2.127-2.138,3.727-1.948v3.065c-2.525-.192-3.527.95-3.527,3.087v7.34h-3.273Z" transform="translate(-657.75 -459.507)" fill="#231815"/>
      <path id="パス_28894" data-name="パス 28894" d="M704.905,489.078h3.075v1.377a3.159,3.159,0,0,1,2.925-1.52,3.555,3.555,0,0,1,3.325,1.828,3.9,3.9,0,0,1,3.5-1.828c2.377,0,3.75,1.45,3.75,4.678v8.813h-3.3v-8.931c0-1.33-.75-1.828-1.675-1.828a1.614,1.614,0,0,0-1.675,1.782v8.978h-3.3v-8.931c0-1.3-.7-1.828-1.675-1.828a1.59,1.59,0,0,0-1.675,1.782v8.978h-3.275Z" transform="translate(-654.241 -459.494)" fill="#231815"/>
      <path id="パス_28895" data-name="パス 28895" d="M715.915,497.711v-3.873c0-3.443,1.725-4.917,4.2-4.917a3.76,3.76,0,0,1,3.35,1.662v-1.495h3.1v13.348h-3.1v-1.472a3.712,3.712,0,0,1-3.35,1.685C717.59,502.649,715.915,501.129,715.915,497.711Zm5.35,2.16c1.2,0,2-.76,2-2.4v-3.443c0-1.617-.85-2.33-2-2.33-1.223,0-2.025.737-2.025,2.377v3.4C719.24,499.134,720.042,499.871,721.265,499.871Z" transform="translate(-646.901 -459.503)" fill="#231815"/>
      <path id="パス_28896" data-name="パス 28896" d="M724.741,498.513v-5.678h-1.377l-.023-2.517c1.85,0,2.475-.737,2.475-2.922h2.2V490.1h2.6v2.73h-2.6v5.75c0,1.9.6,2.493,2.65,2.208v2.78C726.341,504.047,724.741,502.456,724.741,498.513Z" transform="translate(-641.951 -460.52)" fill="#231815"/>
      <path id="パス_28897" data-name="パス 28897" d="M730.965,485.785a1.943,1.943,0,0,1,2,1.9,2,2,0,0,1-4,0A1.959,1.959,0,0,1,730.965,485.785Zm-1.65,5.393h3.275v13.348h-3.275Z" transform="translate(-638.202 -461.594)" fill="#231815"/>
      <path id="パス_28898" data-name="パス 28898" d="M732.4,497.367v-3.2c0-3.16,1.927-5.227,5.327-5.227,3.323,0,5.323,2.067,5.323,5.227v3.2c0,3.278-2,5.3-5.323,5.3C734.327,502.665,732.4,500.645,732.4,497.367Zm5.327,2.518a1.894,1.894,0,0,0,2.023-2.065v-4.038a2.025,2.025,0,1,0-4.05,0v4.038A1.872,1.872,0,0,0,737.727,499.885Z" transform="translate(-635.912 -459.494)" fill="#231815"/>
      <path id="パス_28899" data-name="パス 28899" d="M739.84,489.078h3.073v1.52a3.8,3.8,0,0,1,3.35-1.663c2.55,0,4.225,1.5,4.225,4.893v8.6h-3.325v-8.36c0-1.64-.748-2.352-2.025-2.352-1.348,0-2.023.688-2.023,2.4v8.313H739.84Z" transform="translate(-630.952 -459.494)" fill="#231815"/>
      <path id="パス_28900" data-name="パス 28900" d="M675.7,501.983h5.8c3.5,0,5.923,2.042,5.923,6.127v4.42c0,4.038-2.425,6.2-5.923,6.2h-5.8Zm5.4,13.633c1.652,0,2.9-.617,2.9-3.9v-3.255c0-1.8-.5-3.348-2.9-3.348h-1.948v10.5Z" transform="translate(-673.713 -450.796)" fill="#231815"/>
      <path id="パス_28901" data-name="パス 28901" d="M683.7,512.448v-3.253c0-3.255,1.95-5.273,5.35-5.273,3.325,0,5.3,1.877,5.3,5.155v2.612H687v1.448a2.02,2.02,0,0,0,2.05,2c1.1,0,2-.6,2-1.687v-.285h3.3v.1c0,2.445-1.975,4.418-5.3,4.418C685.655,517.674,683.7,515.654,683.7,512.448Zm7.35-2.945v-.642c0-1.78-.775-2.375-2-2.375a1.861,1.861,0,0,0-2.05,2.043v.973Z" transform="translate(-668.374 -449.504)" fill="#231815"/>
      <path id="パス_28902" data-name="パス 28902" d="M690.831,512.971h3.3a1.934,1.934,0,0,0,2.175,2.09c1.277,0,2-.665,2-1.425,0-2.327-7.15-1.068-7.15-5.773,0-2.445,1.875-3.942,5-3.942,3.426,0,5.326,1.52,5.326,4.56h-3.225c0-1.5-.852-1.9-2.075-1.9-1.125,0-1.777.475-1.777,1.282,0,2.495,7.225,1.167,7.225,5.8,0,2.518-1.875,4.038-5.325,4.038C692.931,517.7,690.831,515.964,690.831,512.971Z" transform="translate(-663.623 -449.504)" fill="#231815"/>
      <path id="パス_28903" data-name="パス 28903" d="M700.4,500.785a1.945,1.945,0,0,1,2,1.9,2,2,0,0,1-4,0A1.959,1.959,0,0,1,700.4,500.785Zm-1.65,5.393h3.275v13.348h-3.275Z" transform="translate(-658.574 -451.594)" fill="#231815"/>
      <path id="パス_28904" data-name="パス 28904" d="M702.255,518.543h3.2c0,.927.65,1.568,2,1.568,1.323,0,1.973-.595,1.973-1.83v-2.327a3.294,3.294,0,0,1-3.15,1.662c-2.525,0-4.2-1.5-4.2-4.915v-3.873c0-3.373,1.65-4.893,4.1-4.893a3.846,3.846,0,0,1,3.45,1.638v-1.495h3.1v13.515c0,3.207-1.2,4.94-5.273,4.94C703.33,522.533,702.255,520.586,702.255,518.543Zm5.175-3.633c1.3,0,2-.76,2-2.757v-2.922c0-1.852-.75-2.542-2-2.542-1.223,0-2.025.737-2.025,2.377v3.04C705.4,514.125,706.03,514.91,707.43,514.91Z" transform="translate(-656.124 -449.494)" fill="#231815"/>
      <path id="パス_28905" data-name="パス 28905" d="M709.82,504.078h3.075v1.52a3.8,3.8,0,0,1,3.35-1.663c2.55,0,4.225,1.5,4.225,4.893v8.6h-3.325v-8.36c0-1.64-.748-2.352-2.025-2.352-1.35,0-2.025.688-2.025,2.4v8.313H709.82Z" transform="translate(-650.964 -449.494)" fill="#231815"/>
    </g>
    <g id="グループ_13884" data-name="グループ 13884" transform="translate(681.634 588.423)">
      <path id="パス_28906" data-name="パス 28906" d="M676.181,519.446h3.107a3.343,3.343,0,0,1,3.615,3.532v.383a3.3,3.3,0,0,1-3.615,3.475h-1.637v2.65h-1.47Zm3.032,6.052a2,2,0,0,0,2.235-2.15v-.37a1.962,1.962,0,0,0-2.235-2.18h-1.562v4.7Z" transform="translate(-676.181 -518.633)" fill="#231815"/>
      <path id="パス_28907" data-name="パス 28907" d="M681.112,520.708h1.32v1.453a2.226,2.226,0,0,1,2.447-1.552v1.325c-1.562-.072-2.37.668-2.37,2.15v4.628h-1.4Z" transform="translate(-672.894 -517.86)" fill="#231815"/>
      <path id="パス_28908" data-name="パス 28908" d="M683.777,525.657v-1.893a3.173,3.173,0,0,1,6.347,0v1.893a3.173,3.173,0,1,1-6.347,0Zm3.18,1.98a1.656,1.656,0,0,0,1.772-1.81v-2.222a1.778,1.778,0,1,0-3.557,0v2.222A1.647,1.647,0,0,0,686.957,527.637Z" transform="translate(-671.117 -517.853)" fill="#231815"/>
      <path id="パス_28909" data-name="パス 28909" d="M689.039,522.92h-.915v-1.155h.915c0-2.222.825-2.933,3.15-2.7v1.14c-1.425-.2-1.74.27-1.74,1.565h1.727v1.155h-1.727v6.85h-1.41Z" transform="translate(-668.219 -518.917)" fill="#231815"/>
      <path id="パス_28910" data-name="パス 28910" d="M691.013,525.712v-1.937a2.929,2.929,0,0,1,3.18-3.177,2.864,2.864,0,0,1,3.165,3.1v1.382h-4.952v.9a1.671,1.671,0,0,0,1.787,1.767,1.571,1.571,0,0,0,1.77-1.5v-.128h1.4v.057c0,1.468-1.17,2.678-3.165,2.678A2.92,2.92,0,0,1,691.013,525.712Zm4.95-1.595v-.5c0-1.323-.675-1.892-1.77-1.892a1.631,1.631,0,0,0-1.787,1.778v.613Z" transform="translate(-666.293 -517.864)" fill="#231815"/>
      <path id="パス_28911" data-name="パス 28911" d="M695.3,525.969h1.4a1.658,1.658,0,0,0,1.86,1.75c.975,0,1.71-.468,1.71-1.223,0-1.752-4.727-.657-4.727-3.632,0-1.423,1.1-2.265,2.957-2.265,2.04,0,3.09.955,3.09,2.792h-1.32c0-1.225-.615-1.653-1.77-1.653-1.05,0-1.577.413-1.577,1.1,0,1.937,4.756.755,4.756,3.675,0,1.423-1.08,2.348-3.12,2.348S695.3,527.764,695.3,525.969Z" transform="translate(-663.438 -517.864)" fill="#231815"/>
      <path id="パス_28912" data-name="パス 28912" d="M699.688,525.969h1.4a1.659,1.659,0,0,0,1.86,1.75c.975,0,1.711-.468,1.711-1.223,0-1.752-4.727-.657-4.727-3.632,0-1.423,1.1-2.265,2.955-2.265,2.042,0,3.092.955,3.092,2.792h-1.32c0-1.225-.615-1.653-1.771-1.653-1.05,0-1.575.413-1.575,1.1,0,1.937,4.757.755,4.757,3.675,0,1.423-1.08,2.348-3.122,2.348C700.92,528.859,699.688,527.764,699.688,525.969Z" transform="translate(-660.51 -517.864)" fill="#231815"/>
      <path id="パス_28913" data-name="パス 28913" d="M705.3,518.958a.842.842,0,1,1-.885.842A.857.857,0,0,1,705.3,518.958Zm-.7,2.848h1.395v8h-1.395Z" transform="translate(-657.361 -518.958)" fill="#231815"/>
      <path id="パス_28914" data-name="パス 28914" d="M706.375,525.657v-1.893a3.173,3.173,0,0,1,6.345,0v1.893a3.172,3.172,0,1,1-6.345,0Zm3.18,1.98a1.657,1.657,0,0,0,1.772-1.81v-2.222a1.778,1.778,0,0,0-3.557,0v2.222A1.647,1.647,0,0,0,709.555,527.637Z" transform="translate(-656.053 -517.853)" fill="#231815"/>
      <path id="パス_28915" data-name="パス 28915" d="M710.992,520.706h1.32v1.127a2.477,2.477,0,0,1,2.3-1.225c1.7,0,2.745,1.112,2.745,3.1v5h-1.41V523.87c0-1.34-.45-2.15-1.787-2.15-1.32,0-1.768.7-1.768,2.222v4.77h-1.4Z" transform="translate(-652.975 -517.858)" fill="#231815"/>
      <path id="パス_28916" data-name="パス 28916" d="M715.618,525.712v-1.993c0-2.052,1.11-3.12,2.732-3.12a2.483,2.483,0,0,1,2.295,1.225v-1.112h1.32v8h-1.32v-1.1a2.455,2.455,0,0,1-2.295,1.225C716.668,528.845,715.618,527.734,715.618,525.712Zm3.18,2.022c1.157,0,1.772-.768,1.772-2.207v-1.7c0-1.4-.662-2.122-1.772-2.122-1.155,0-1.77.755-1.77,2.178v1.638C717.028,526.979,717.628,527.734,718.8,527.734Z" transform="translate(-649.891 -517.864)" fill="#231815"/>
      <path id="パス_28917" data-name="パス 28917" d="M720.55,518.985h1.41v10.808h-1.41Z" transform="translate(-646.603 -518.94)" fill="#231815"/>
      <path id="パス_28918" data-name="パス 28918" d="M725.581,526.139v-6.693h1.472v6.735a2.063,2.063,0,1,0,4.125,0v-6.735h1.47v6.693a3.534,3.534,0,0,1-7.067,0Z" transform="translate(-643.249 -518.633)" fill="#231815"/>
      <path id="パス_28919" data-name="パス 28919" d="M730.99,520.706h1.32v1.127a2.477,2.477,0,0,1,2.3-1.225c1.7,0,2.745,1.112,2.745,3.1v5h-1.41V523.87c0-1.34-.45-2.15-1.785-2.15-1.32,0-1.77.7-1.77,2.222v4.77h-1.4Z" transform="translate(-639.643 -517.858)" fill="#231815"/>
      <path id="パス_28920" data-name="パス 28920" d="M736.681,518.958a.842.842,0,1,1-.885.842A.857.857,0,0,1,736.681,518.958Zm-.705,2.848h1.4v8h-1.4Z" transform="translate(-636.44 -518.958)" fill="#231815"/>
      <path id="パス_28921" data-name="パス 28921" d="M737.685,520.667h1.56l2.027,6.21,2-6.21h1.562l-2.838,8h-1.455Z" transform="translate(-635.18 -517.819)" fill="#231815"/>
      <path id="パス_28922" data-name="パス 28922" d="M742.392,525.712v-1.937a2.93,2.93,0,0,1,3.181-3.177,2.865,2.865,0,0,1,3.165,3.1v1.382h-4.952v.9a1.671,1.671,0,0,0,1.786,1.767,1.571,1.571,0,0,0,1.77-1.5v-.128h1.395v.057c0,1.468-1.17,2.678-3.165,2.678A2.921,2.921,0,0,1,742.392,525.712Zm4.952-1.595v-.5c0-1.323-.675-1.892-1.77-1.892a1.631,1.631,0,0,0-1.786,1.778v.613Z" transform="translate(-632.042 -517.864)" fill="#231815"/>
      <path id="パス_28923" data-name="パス 28923" d="M747.189,520.708h1.32v1.453a2.227,2.227,0,0,1,2.447-1.552v1.325c-1.56-.072-2.37.668-2.37,2.15v4.628h-1.4Z" transform="translate(-628.845 -517.86)" fill="#231815"/>
      <path id="パス_28924" data-name="パス 28924" d="M749.79,525.969h1.4a1.658,1.658,0,0,0,1.86,1.75c.975,0,1.71-.468,1.71-1.223,0-1.752-4.727-.657-4.727-3.632,0-1.423,1.1-2.265,2.957-2.265,2.04,0,3.09.955,3.09,2.792h-1.32c0-1.225-.615-1.653-1.77-1.653-1.05,0-1.575.413-1.575,1.1,0,1.937,4.755.755,4.755,3.675,0,1.423-1.078,2.348-3.12,2.348C751.02,528.859,749.79,527.764,749.79,525.969Z" transform="translate(-627.111 -517.864)" fill="#231815"/>
      <path id="パス_28925" data-name="パス 28925" d="M755.447,518.958a.842.842,0,1,1-.887.842A.857.857,0,0,1,755.447,518.958Zm-.7,2.848h1.395v8h-1.395Z" transform="translate(-623.931 -518.958)" fill="#231815"/>
      <path id="パス_28926" data-name="パス 28926" d="M757.46,526.333v-3.888h-.842l-.015-1.012c.947,0,1.4-.427,1.4-1.723h.87v1.6h1.845v1.14H758.87v3.7c0,1.88.075,2.123,1.92,2.023v1.212C758.165,529.637,757.46,528.755,757.46,526.333Z" transform="translate(-622.569 -518.457)" fill="#231815"/>
      <path id="パス_28927" data-name="パス 28927" d="M762.553,528.63l-2.88-7.963h1.558l2.057,6.167,2.072-6.167h1.53l-3.932,10.812H761.5Z" transform="translate(-620.522 -517.819)" fill="#231815"/>
    </g>
  </g>
</svg>
